<?xml version="1.0" encoding="UTF-8"?>
<svg id="Ebene_1" xmlns="http://www.w3.org/2000/svg" width="26.1mm" height="26.1mm" version="1.1" viewBox="0 0 74 74">
  <!-- Generator: Adobe Illustrator 30.4.0, SVG Export Plug-In . SVG Version: 2.1.4 Build 226)  -->
  <defs>
    <style>
      .st0 {
        stroke: #004b76;
      }

      .st0, .st1 {
        fill: none;
        stroke-linecap: round;
        stroke-linejoin: round;
        stroke-width: 1.2px;
      }

      .st1 {
        stroke: #00a4b9;
      }
    </style>
  </defs>
  <circle class="st0" cx="18.6" cy="48.4" r="4.6"/>
  <path class="st0" d="M10.1,62.2c0-2.6,2-6.3,4.4-6.3h7.6c2.5,0,4.4,3.7,4.4,6.3"/>
  <circle class="st0" cx="56.2" cy="48.4" r="4.6"/>
  <path class="st0" d="M47.8,62.2c0-2.6,2-6.3,4.4-6.3h7.6c2.5,0,4.4,3.7,4.4,6.3"/>
  <ellipse class="st0" cx="47.7" cy="41.8" rx="4.1" ry="4.1"/>
  <path class="st0" d="M40.1,54.3c0-2.4,1.8-5.7,4-5.7h4.9"/>
  <ellipse class="st0" cx="29.1" cy="41.8" rx="4.1" ry="4.1"/>
  <path class="st0" d="M26,48.6h6.3c2.2,0,4,3.3,4,5.7"/>
  <ellipse class="st0" cx="38" cy="35" rx="4" ry="4"/>
  <path class="st0" d="M35.4,41.4h5.7"/>
  <path class="st1" d="M9.5,45.5c-.8-.9-1.3-2-1.3-3.4v-24.2c0-2.6,1.9-4.7,4.3-4.7h49c2.4,0,4.3,2.1,4.3,4.7v24.2c0,1.3-.5,2.5-1.3,3.4"/>
</svg>