<?xml version="1.0" encoding="UTF-8"?>
<svg id="Ebene_1" xmlns="http://www.w3.org/2000/svg" width="26.1mm" height="26.1mm" version="1.1" viewBox="0 0 74 74">
  <!-- Generator: Adobe Illustrator 30.4.0, SVG Export Plug-In . SVG Version: 2.1.4 Build 226)  -->
  <defs>
    <style>
      .st0 {
        fill: #004b76;
      }

      .st0, .st1 {
        stroke: #004b76;
        stroke-miterlimit: 10;
      }

      .st2 {
        fill: none;
        stroke: #00a4b9;
        stroke-linejoin: round;
        stroke-width: 1.4px;
      }

      .st1 {
        fill: #004f80;
      }
    </style>
  </defs>
  <path class="st1" d="M16.7,50.7h-1.3l-3.8,1.3.4,1.2,3-1v9.2h-3.1v1.3h8v-1.3h-3.1v-10.7Z"/>
  <path class="st0" d="M53.1,36.4c0-6.9-2.6-9.7-6.7-9.7s-7.1,2.7-7.1,9.7,2.6,9.7,6.7,9.7,7.1-2.7,7.1-9.7ZM50.3,36.4c0,5.6-1.7,7.7-4.1,7.7s-4.1-2.1-4.1-7.7,1.7-7.7,4.1-7.7,4.1,2.1,4.1,7.7Z"/>
  <g>
    <path class="st1" d="M48.7,50.7h-1.3l-3.8,1.3.4,1.2,3-1v9.2h-3.1v1.3h8v-1.3h-3.1v-10.7Z"/>
    <path class="st1" d="M62.4,56.7c0-4.4-1.7-6.2-4.2-6.2s-4.5,1.7-4.5,6.2,1.7,6.2,4.2,6.2,4.5-1.7,4.5-6.2ZM60.7,56.7c0,3.6-1.1,4.9-2.6,4.9s-2.6-1.3-2.6-4.9,1.1-4.9,2.6-4.9,2.6,1.3,2.6,4.9Z"/>
    <path class="st1" d="M20.2,36.9c0-4.4-1.7-6.2-4.2-6.2s-4.5,1.7-4.5,6.2,1.7,6.2,4.2,6.2,4.5-1.7,4.5-6.2ZM18.4,36.9c0,3.6-1.1,4.9-2.6,4.9s-2.6-1.3-2.6-4.9,1.1-4.9,2.6-4.9,2.6,1.3,2.6,4.9Z"/>
    <path class="st1" d="M27.8,31h-1.3l-3.8,1.3.4,1.2,3-1v9.2h-3.1v1.3h8v-1.3h-3.1v-10.7Z"/>
  </g>
  <g>
    <path class="st1" d="M16.7,10.9h-1.3l-3.8,1.3.4,1.2,3-1v9.2h-3.1v1.3h8v-1.3h-3.1v-10.7Z"/>
    <path class="st1" d="M30.5,16.9c0-4.4-1.7-6.2-4.2-6.2s-4.5,1.7-4.5,6.2,1.7,6.2,4.2,6.2,4.5-1.7,4.5-6.2ZM28.7,16.9c0,3.6-1.1,4.9-2.6,4.9s-2.6-1.3-2.6-4.9,1.1-4.9,2.6-4.9,2.6,1.3,2.6,4.9Z"/>
    <path class="st1" d="M38,10.9h-1.3l-3.8,1.3.4,1.2,3-1v9.2h-3.1v1.3h8v-1.3h-3.1v-10.7Z"/>
    <path class="st1" d="M51.8,16.9c0-4.4-1.7-6.2-4.2-6.2s-4.5,1.7-4.5,6.2,1.7,6.2,4.2,6.2,4.5-1.7,4.5-6.2ZM50,16.9c0,3.6-1.1,4.9-2.6,4.9s-2.6-1.3-2.6-4.9,1.1-4.9,2.6-4.9,2.6,1.3,2.6,4.9Z"/>
    <path class="st1" d="M62.4,16.9c0-4.4-1.7-6.2-4.2-6.2s-4.5,1.7-4.5,6.2,1.7,6.2,4.2,6.2,4.5-1.7,4.5-6.2ZM60.7,16.9c0,3.6-1.1,4.9-2.6,4.9s-2.6-1.3-2.6-4.9,1.1-4.9,2.6-4.9,2.6,1.3,2.6,4.9Z"/>
  </g>
  <g>
    <circle class="st2" cx="46.2" cy="35.9" r="13"/>
    <path class="st2" d="M39.1,46.9l-10,10c-2.2,0-4-1.8-4-4l10-10"/>
  </g>
</svg>