<?xml version="1.0" encoding="UTF-8"?>
<svg id="Ebene_1" xmlns="http://www.w3.org/2000/svg" width="26.1mm" height="26.1mm" version="1.1" viewBox="0 0 74 74">
  <!-- Generator: Adobe Illustrator 30.4.0, SVG Export Plug-In . SVG Version: 2.1.4 Build 226)  -->
  <defs>
    <style>
      .st0 {
        stroke: #004b76;
      }

      .st0, .st1 {
        fill: none;
        stroke-linecap: round;
        stroke-linejoin: round;
        stroke-width: 1.2px;
      }

      .st1 {
        stroke: #00a4b9;
      }
    </style>
  </defs>
  <g>
    <path class="st0" d="M35.1,50.7l4.6,5.6,4.6-5.6"/>
    <path class="st0" d="M39.7,55.9v-13.6"/>
  </g>
  <path class="st1" d="M42.9,48.1c1.7.4,3.6.6,5.5.5,8.7-.4,15.5-6.3,15.3-13.1-.2-4.4-3.4-8.4-8.4-10.4-.4-6-6.9-10.6-14.6-10.2h0c-5.7.3-10.8,3.2-12.9,7.4-1.1-.1-2.2-.2-3.4-.1-8.7.4-15.5,6.3-15.3,13.1.3,6.8,7.5,12,16.2,11.6,3.6-.2,7.1-1.3,9.8-3.2.3.4.7.7,1.1,1.1"/>
  <path class="st0" d="M49.7,52.9v5.9h-20v-5.9"/>
</svg>