<?xml version="1.0" encoding="UTF-8"?>
<svg id="Ebene_1" xmlns="http://www.w3.org/2000/svg" width="26.1mm" height="26.1mm" version="1.1" viewBox="0 0 74 74">
  <!-- Generator: Adobe Illustrator 30.4.0, SVG Export Plug-In . SVG Version: 2.1.4 Build 226)  -->
  <defs>
    <style>
      .st0 {
        stroke: #004b76;
      }

      .st0, .st1 {
        fill: none;
        stroke-linecap: round;
        stroke-linejoin: round;
        stroke-width: 1.2px;
      }

      .st1 {
        stroke: #00a4b9;
      }
    </style>
  </defs>
  <g>
    <polyline class="st0" points="21.8 16.4 48.8 16.4 48.8 29.8"/>
    <path class="st0" d="M21.8,16.4c0,1.6-1.3,2.9-2.9,2.9s-2.9-1.3-2.9-2.9,1.3-2.9,2.9-2.9,2.9,1.3,2.9,2.9Z"/>
    <polyline class="st0" points="26.2 31 26.2 23.3 37.4 23.3"/>
    <path class="st0" d="M19.1,28.5c0,1.6-1.3,2.9-2.9,2.9s-2.9-1.3-2.9-2.9,1.3-2.9,2.9-2.9c1.6,0,2.9,1.3,2.9,2.9Z"/>
  </g>
  <path class="st1" d="M36.6,41.6c-1.3-2.8-1.1-6,1-7.9,2.7-2.5,7.3-1.9,10.4,1.3,3.1,3.2,3.4,7.9.7,10.4-1.6,1.5-3.9,1.9-6.1,1.3"/>
  <path class="st0" d="M39.5,49.3l-2,9.2s-2.7,1.1-4.1-.2l-1.1,4.5s-3.9,1.3-5.2-1.2M8.8,64.2l12.5-.2c2.8-.2,4.3-1.1,5.5-2.4l7.4-7.8,9.6-8.2c1.3-1.1,1.7-3.1,0-5.1-1.9-2.2-3.8-1.7-4.8-1l-9.6,7.8c0-1.6.2-3.8.2-5.2l4.3-1.2M35.2,33.5l-11,1.2-11.2,13.5-4.1,1.5M59.8,40.4c-2.5,0-4.5,2-4.5,4.5s1,3.3,2.5,4l-.9,5.8c0,.1,0,.2,0,.3,0,0,.2.1.3.1h5.1c.1,0,.2,0,.3-.1,0,0,.1-.2,0-.3l-.9-5.8c1.5-.8,2.5-2.3,2.5-4,0-2.5-2-4.5-4.5-4.5h0Z"/>
  <line class="st1" x1="48.4" y1="34.5" x2="61.9" y2="21"/>
  <polyline class="st1" points="60.7 22.2 65 26.6 59.8 31.7 55.5 27.4"/>
  <path class="st0" d="M43.3,23.3c0,1.6-1.3,2.9-2.9,2.9s-2.9-1.3-2.9-2.9,1.3-2.9,2.9-2.9,2.9,1.3,2.9,2.9Z"/>
  <line class="st0" x1="16.1" y1="31.5" x2="16.1" y2="40"/>
</svg>