<?xml version="1.0" encoding="UTF-8"?>
<svg xmlns="http://www.w3.org/2000/svg" width="26.1mm" height="26.1mm" xmlns:sodipodi="http://sodipodi.sourceforge.net/DTD/sodipodi-0.dtd" xmlns:inkscape="http://www.inkscape.org/namespaces/inkscape" version="1.1" viewBox="0 0 74 74">
  <!-- Generator: Adobe Illustrator 30.4.0, SVG Export Plug-In . SVG Version: 2.1.4 Build 226)  -->
  <defs>
    <style>
      .st0 {
        stroke: #004b76;
      }

      .st0, .st1 {
        fill: none;
        stroke-linecap: round;
        stroke-linejoin: round;
        stroke-width: 1.2px;
      }

      .st1 {
        stroke: #00a4b9;
      }
    </style>
  </defs>
  <g id="Ebene_1" inkscape:version="0.92.4 (5da689c313, 2019-01-14)" sodipodi:docname="Grafik-6_1200055680_opt.svg">
    <sodipodi:namedview id="base" bordercolor="#666666" borderopacity="1.0" inkscape:current-layer="layer2" inkscape:cx="17.67224" inkscape:cy="6.0885382" inkscape:document-units="mm" inkscape:guide-bbox="true" inkscape:pageopacity="0.0" inkscape:pageshadow="2" inkscape:showpageshadow="false" inkscape:window-height="1113" inkscape:window-maximized="1" inkscape:window-width="1920" inkscape:window-x="-8" inkscape:window-y="-8" inkscape:zoom="3.959798" pagecolor="#ffffff" showgrid="false" showguides="true" units="px">
      <sodipodi:guide inkscape:locked="false" orientation="1,0" position="2.9399648,4.2763124"/>
      <sodipodi:guide inkscape:locked="false" orientation="1,0" position="16.437075,-12.361216"/>
      <sodipodi:guide inkscape:locked="false" orientation="1,0" position="9.8221548,4.7440342"/>
    </sodipodi:namedview>
    <g>
      <line class="st0" x1="30.9" y1="49.8" x2="34.8" y2="51"/>
      <g>
        <line class="st0" x1="42.9" y1="15.8" x2="42.9" y2="15.8"/>
        <path class="st0" d="M48.9,56.1c-1.7.9-3.8.3-4.8-1.4-.9-1.7-.3-3.8,1.4-4.8l1.2-.7c1.7-.9,3.8-.3,4.8,1.4.9,1.7.3,3.8-1.4,4.8l-1.2.7Z" inkscape:connector-curvature="0"/>
        <path class="st0" d="M51.1,48.4c-1.7.9-3.8.3-4.8-1.4-.9-1.7-.3-3.8,1.4-4.8l1.2-.7c1.7-.9,3.8-.3,4.8,1.4.9,1.7.3,3.8-1.4,4.8l-1.2.7Z" inkscape:connector-curvature="0"/>
        <path class="st0" d="M53.4,40.7c-1.7.9-3.8.3-4.8-1.4-.9-1.7-.3-3.8,1.4-4.8l1.2-.7c1.7-.9,3.8-.3,4.8,1.4.9,1.7.3,3.8-1.4,4.8l-1.2.7Z" inkscape:connector-curvature="0"/>
        <path class="st0" d="M54,24.3l2.5-1.4c1.7-.9,3.8-.3,4.8,1.4.9,1.7.3,3.8-1.4,4.8l-8.6,4.7" inkscape:connector-curvature="0"/>
        <path class="st0" d="M51.2,33.9l4.2-14.4c.6-2.1-.6-4.3-2.7-5l-17.3-5c-2.1-.6-4.3.6-5,2.7l-10.6,36.5c-.6,2.1.6,4.3,2.7,5l17.3,5c2.1.6,4.3-.6,5-2.7v-.3" inkscape:connector-curvature="0"/>
        <path class="st0" d="M48.9,56.1c-1.7.9-3.8.3-4.8-1.4-.9-1.7-.3-3.8,1.4-4.8l1.2-.7c1.7-.9,3.8-.3,4.8,1.4.9,1.7.3,3.8-1.4,4.8l-1.2.7Z" inkscape:connector-curvature="0"/>
        <path class="st0" d="M39.8,58.7l-17.3-5c-2.1-.6-3.3-2.8-2.7-5l6.2-21.1c.9-3.2-.9-6.5-4.1-7.4-1.1-.3-2.2.3-2.5,1.4l-7,24c-2,6.9,3.2,14.5,11.7,17,6.4,1.9,12.9.3,16.5-3.6-.3,0-.5,0-.8-.1h0Z" inkscape:connector-curvature="0"/>
      </g>
    </g>
    <g>
      <path class="st1" d="M42.6,27.3s-.5-.6-1.5-1.1c-1-.5-2.3-.7-3.8,0-2.2,1.1-2.8,3.3-2.8,3.3l-.7,2.6s-.7,2.8.5,4.6c.7,1.2,2.1,1.6,2.7,1.8.4.1,1.1.2,1.6.1.5,0,1-.2,1-.2" inkscape:connector-curvature="0" sodipodi:nodetypes="cssccccsc"/>
      <path class="st1" d="M32.1,29.1l8.2,2.2" inkscape:connector-curvature="0"/>
      <path class="st1" d="M31.4,31.7l8.2,2.2" inkscape:connector-curvature="0"/>
    </g>
  </g>
</svg>