<?xml version="1.0" encoding="UTF-8"?>
<svg id="Ebene_1" xmlns="http://www.w3.org/2000/svg" width="26.1mm" height="26.1mm" version="1.1" viewBox="0 0 74 74">
  <!-- Generator: Adobe Illustrator 30.4.0, SVG Export Plug-In . SVG Version: 2.1.4 Build 226)  -->
  <defs>
    <style>
      .st0 {
        stroke: #004b76;
      }

      .st0, .st1 {
        fill: none;
        stroke-linecap: round;
        stroke-linejoin: round;
        stroke-width: 1.2px;
      }

      .st1 {
        stroke: #00a4b9;
      }
    </style>
  </defs>
  <g>
    <path class="st1" d="M45.1,52.7l.7-7.3v-.2c0-3.1-2.3-5.6-5.4-5.6h-15.9c-2.9,0-5.2,2.5-5.2,5.6l.5,6.8"/>
    <path class="st1" d="M32.4,35.9c2.7,0,5-2.3,5-5s-2.3-5-5-5-5,2.3-5,5,2.3,5,5,5Z"/>
    <path class="st1" d="M40.2,55.1l.7-7.7"/>
    <path class="st1" d="M25,54.9l-.6-7.6"/>
  </g>
  <path class="st0" d="M45.2,52.8l11.1,11.5c1.7,1.7,4.5,1.7,6,0,1.7-1.7,1.7-4.5,0-6.2l-11.1-11.5"/>
  <path class="st0" d="M54.7,34.2c0,12.5-9.8,22.4-21.9,22.4s-21.9-10.1-21.9-22.4,9.8-22.4,21.9-22.4c12.2-.2,21.9,9.9,21.9,22.4Z"/>
  <path class="st0" d="M15.3,30.2c1.7-7.5,7.5-13.5,15-15.3"/>
</svg>