<?xml version="1.0" encoding="UTF-8"?>
<svg id="Ebene_1" xmlns="http://www.w3.org/2000/svg" width="26.1mm" height="26.1mm" version="1.1" viewBox="0 0 74 74">
  <!-- Generator: Adobe Illustrator 30.4.0, SVG Export Plug-In . SVG Version: 2.1.4 Build 226)  -->
  <defs>
    <style>
      .st0 {
        fill: #004b76;
      }

      .st1 {
        stroke: #00a4b9;
      }

      .st1, .st2 {
        fill: none;
        stroke-linecap: round;
        stroke-linejoin: round;
        stroke-width: 1.2px;
      }

      .st2 {
        stroke: #004f80;
      }
    </style>
  </defs>
  <g>
    <path class="st1" d="M35.6,52.3h-.2c-4.2-2.5-6.8-7.1-6.8-11.9v-3.2h.5c2.1,0,4.1-.6,5.8-1.9l.8-.6.8.6c1.7,1.2,3.7,1.9,5.8,1.9h.5v3.2c0,4.9-2.6,9.4-6.8,11.8h-.2Z"/>
    <path class="st1" d="M39,41.3l-4.3,4.4-2.3-2.3"/>
  </g>
  <path class="st2" d="M30,50.4l-7.5,5.4c-2.3,1.7-5.4-2.6-7.1-4.9s-4.8-6.5-2.5-8.3l29.8-21.8,9.6,13.1-7.5,5.4"/>
  <rect class="st2" x="46.5" y="17.1" width="12.4" height="13.4" transform="translate(-3.9 35.6) rotate(-36.1)"/>
  <rect class="st0" x="48.1" y="20.9" width="6.3" height="2.8" transform="translate(-3.3 34.5) rotate(-36.1)"/>
  <rect class="st0" x="50.5" y="24.2" width="6.3" height="2.8" transform="translate(-4.7 36.5) rotate(-36.1)"/>
  <ellipse class="st2" cx="19.6" cy="48" rx="2.7" ry="2.7" transform="translate(-24.5 20.8) rotate(-36.1)"/>
</svg>